<svg xmlns:svg="http://www.w3.org/2000/svg" xmlns="http://www.w3.org/2000/svg" xmlns:sodipodi="http://sodipodi.sourceforge.net/DTD/sodipodi-0.dtd" x="0px" y="0px" viewBox="40 10 60 80" xml:space="preserve" sodipodi:docname="logo.svg" width="60" height="60">
<style type="text/css" id="style2">
	.blue-cci{fill:#3B3EEF;}
	.reserve{fill:#2e2863;}
</style>
	<path class="reserve" d="m 37.53,48.49 c 0,15.95 12.97,28.92 28.92,28.92 7.59,0 13.58,-2.86 17.78,-6.14 l -6.1,-6.81 c -3.35,2.42 -7.27,3.78 -11.68,3.78 -10.89,0 -19.75,-8.86 -19.75,-19.75 0,-10.88 8.86,-19.75 19.75,-19.75 2.82,0 5.49,0.6 7.92,1.67 L 78,21.99 C 74.46,20.44 70.55,19.57 66.45,19.57 50.5,19.57 37.53,32.55 37.53,48.49 Z" />
	<path class="reserve" d="m 51.03,48.49 c 0,8.5 6.91,15.41 15.41,15.41 3.26,0 6.55,-1.16 8.66,-2.75 0,0 -5.73,-6.39 -6.23,-6.93 -0.51,0.25 -1.55,0.51 -2.43,0.51 -3.44,0 -6.24,-2.8 -6.24,-6.24 0,-3.44 2.82,-6.33 6.26,-6.33 0.89,0 1.77,0.21 2.54,0.55 l 3.62,-8.3 c -1.84,-0.78 -3.88,-1.32 -6.18,-1.32 -8.49,-0.01 -15.41,6.9 -15.41,15.4 z" />
	<path class="reserve" d="m 77.94,42.5 c 0.79,1.57 1.48,3.71 1.48,5.99 0,2.89 -1.22,6.02 -2.84,8.1 l 6.19,6.82 c 3.45,-3.69 5.82,-9.04 5.82,-14.92 0,-3.48 -0.87,-6.98 -2.33,-9.87 z" />
	<path class="reserve" d="m 75.37,39.08 15.7,-7.36 C 88.75,28.31 85.59,25.2 82.35,23.24 l -7.03,15.79 z" />
</svg>