<svg xmlns="http://www.w3.org/2000/svg" width="100" height="50" viewBox="70 60 100 80"><path fill="#ffffff" d="M74.322 79.783H52.64l-5.46 33.192h32.563l5.97-18.973 4.87 18.973h3.418l11.116-18.973v18.973h8.287V85.282h9.664l-4.517 27.693h6.795l4.556-27.693h8.248l.905-5.499h-34.094L94.787 97.615l-4.085-17.832h-8.524l-8.092 25.334H59.513l.944-5.773h9.858l1.101-6.638h-9.86l.864-5.343h10.645l1.257-7.58zM141.254 79.783l-5.459 33.192h19.482l.707-4.323h-14.338l1.846-11.193h11.863l.707-4.322h-11.861l1.451-8.994h13.356l.707-4.36h-18.461zM178.805 79.036c-10.213 0-19.324 7.345-20.699 17.362-1.18 8.68 4.752 17.322 15.516 17.322 5.656 0 9.898-2.633 12.254-4.322l.787-4.83c-2.201 2.789-7.268 6.166-12.885 6.166-6.834 0-13.08-5.695-12.098-13.982.943-8.367 8.799-14.73 16.732-14.73 5.854 0 9.584 3.771 10.764 6.167l.746-4.478c-2.16-2.397-5.971-4.675-11.117-4.675z"/></svg>