<?xml version="1.0" encoding="UTF-8"?>
<svg id="uuid-79460da0-a579-4b84-bc94-0e102636c868" data-name="Layer 1" xmlns="http://www.w3.org/2000/svg" viewBox="0 0 400 140.53">
  <g>
    <rect x="245.85" width="1.37" height="67.91" style="fill: #2e2863;"/>
    <rect x="261.44" y="3.34" width="3.19" height="28.27" style="fill: #2e2863;"/>
    <polygon points="352.2 31.89 349.34 31.89 334.18 9.23 334.18 31.89 331.04 31.89 331.04 3.27 333.9 3.27 349.06 25.94 349.06 3.27 352.2 3.27 352.2 31.89" style="fill: #2e2863;"/>
    <polygon points="396.53 3.27 389.37 25.99 382.21 3.27 378.73 3.27 388.17 31.89 390.56 31.89 400 3.27 396.53 3.27" style="fill: #2e2863;"/>
    <polygon points="284.04 31.89 292.36 8.34 300.68 31.89 304.16 31.89 293.56 3.27 291.17 3.27 280.57 31.89 284.04 31.89" style="fill: #2e2863;"/>
    <polygon points="279.9 3.27 276.17 3.27 265.62 17.57 277.68 31.89 278.85 31.89 279.68 29.38 269.53 17.3 279.9 3.27" style="fill: #2e2863;"/>
    <path d="M270.85,64.76c-2.77,0-5.37-1.06-7.3-2.98-2.73-2.72-2.73-5.48-2.73-11.54s0-8.82,2.73-11.54c1.93-1.92,4.53-2.98,7.3-2.98,3.83,0,6.21,1.59,8.61,3.98l.43,.43-2.26,2.25-.44-.43c-2.2-2.19-3.63-3.16-6.35-3.16-1.83,0-3.52,.69-4.77,1.93-1.79,1.78-1.94,3.79-1.94,9.52s.15,7.73,1.94,9.52c1.2,1.23,2.94,1.93,4.77,1.93,2.05,0,3.96-.88,5.23-2.43,1.08-1.32,1.52-2.77,1.52-5.03v-1.85h-7.37v-3.07h10.68v5.07c0,3.13-.72,5.23-2.4,7.02-1.93,2.13-4.72,3.35-7.66,3.35" style="fill: #2e2863;"/>
    <path d="M343.92,64.76c-5.9,0-10.02-4-10.02-9.72v-19.09h3.31v18.83c0,4.2,2.63,6.92,6.71,6.92s6.71-2.71,6.71-6.92v-18.83h3.31v19.09c0,5.72-4.12,9.72-10.03,9.72" style="fill: #2e2863;"/>
    <path d="M318.96,38.79c-1.83,0-3.52,.69-4.77,1.93-1.79,1.78-1.94,3.79-1.94,9.52s.15,7.73,1.94,9.52c1.25,1.25,2.94,1.93,4.77,1.93s3.52-.69,4.77-1.93c1.79-1.78,1.94-3.78,1.94-9.52s-.15-7.74-1.94-9.52c-1.25-1.25-2.94-1.93-4.77-1.93m0,25.97c-2.78,0-5.37-1.06-7.3-2.98-2.73-2.72-2.73-5.48-2.73-11.54s0-8.82,2.73-11.54c1.93-1.92,4.53-2.98,7.3-2.98s5.37,1.06,7.3,2.98c2.73,2.72,2.73,5.48,2.73,11.54s0,8.82-2.72,11.54c-1.93,1.92-4.52,2.98-7.3,2.98" style="fill: #2e2863;"/>
    <path d="M299.07,51.71c3.79-.95,6.02-3.82,6.02-7.81,0-4.83-3.33-7.95-8.48-7.95h-11.07v28.58h3.31v-25.51h7.48c3.46,0,5.44,1.79,5.44,4.92,0,4.28-3.41,4.92-5.44,4.92h-.93v3.07h.02l6.55,12.6h3.82l-6.73-12.82h.01Z" style="fill: #2e2863;"/>
    <path d="M320.5,19.07c3.79-.95,6.02-3.82,6.02-7.81,0-4.83-3.33-7.95-8.48-7.95h-11.07V31.89h3.31V6.37h7.48c3.46,0,5.44,1.79,5.44,4.92,0,4.28-3.41,4.92-5.44,4.92h-.93v3.07h.02l6.55,12.6h3.82l-6.73-12.82h.01Z" style="fill: #2e2863;"/>
    <path d="M370.01,35.95h-10.68v28.58h3.31v-25.51h7.14c2.17,0,5.82,.7,5.82,5.42s-3.65,5.42-5.82,5.42h-3.65v3.07h3.88c5.33,0,8.91-3.41,8.91-8.49s-3.58-8.49-8.91-8.49" style="fill: #2e2863;"/>
    <path d="M367.5,6.14c-1.83,0-3.52,.69-4.77,1.93-1.79,1.78-1.94,3.79-1.94,9.52s.15,7.73,1.94,9.52c1.25,1.25,2.94,1.93,4.77,1.93s3.52-.69,4.77-1.93c1.79-1.78,1.94-3.78,1.94-9.52s-.15-7.74-1.94-9.52c-1.25-1.25-2.94-1.93-4.77-1.93m0,25.97c-2.78,0-5.37-1.06-7.3-2.98-2.73-2.72-2.73-5.48-2.73-11.54s0-8.82,2.73-11.54c1.93-1.92,4.53-2.98,7.3-2.98s5.37,1.06,7.3,2.98c2.73,2.72,2.73,5.48,2.73,11.54s0,8.82-2.72,11.54c-1.93,1.92-4.52,2.98-7.3,2.98" style="fill: #2e2863;"/>
  </g>
  <polygon points="107.37 3.31 102.17 3.31 79.74 64.53 86.42 64.53 104.77 12.79 123.13 64.53 129.8 64.53 107.37 3.31" style="fill: #2e2863;"/>
  <polygon points="234.05 3.31 226.82 3.31 211.46 30.74 196.15 3.31 188.91 3.31 208.18 36.6 208.18 64.52 214.73 64.52 214.73 36.65 234.05 3.31" style="fill: #2e2863;"/>
  <polygon points="179.81 3.31 177.33 7.02 170.78 16.85 158.98 34.54 147.19 16.85 140.63 7.02 138.16 3.31 131.6 3.31 131.6 64.52 138.16 64.52 138.14 14.88 140.63 18.63 147.19 28.5 155.08 40.38 158.98 46.25 162.88 40.38 170.78 28.5 177.33 18.63 179.83 14.88 179.81 64.52 186.37 64.52 186.37 3.31 179.81 3.31" style="fill: #2e2863;"/>
  <rect x="28.5" y="3.31" width="8.69" height="61.22" style="fill: #2e2863;"/>
  <rect x="14.25" y="3.31" width="8.69" height="61.22" style="fill: #2e2863;"/>
  <rect y="3.31" width="8.69" height="61.22" style="fill: #2e2863;"/>
  <polygon points="42.76 64.52 42.76 3.31 51.48 3.31 51.48 58.68 78.39 58.68 78.39 64.52 42.76 64.52" style="fill: #2e2863;"/>
  <rect x="39.12" y="78.81" width="6.56" height="61.2" style="fill: #2e2863;"/>
  <rect x="102.54" y="78.81" width="6.56" height="61.2" style="fill: #2e2863;"/>
  <path d="M191.09,88.52c-2.68-2.75-6.56-4.38-10.61-4.38s-7.94,1.63-10.61,4.38c-3.88,3.96-4.32,8.08-4.32,20.89s.43,16.93,4.32,20.89c2.67,2.75,6.56,4.38,10.61,4.38s7.94-1.63,10.61-4.38c3.88-3.96,4.31-8.08,4.31-20.89s-.43-16.93-4.31-20.89m5.09,45.65c-4.14,4.12-9.58,6.36-15.7,6.36s-11.56-2.23-15.7-6.36c-5.78-5.76-5.78-11.78-5.78-24.76s0-19,5.78-24.75c4.14-4.13,9.58-6.36,15.7-6.36s11.56,2.23,15.7,6.36c5.78,5.76,5.78,11.77,5.78,24.75s0,19-5.78,24.76" style="fill: #2e2863;"/>
  <path d="M150.33,116.25c-1.23-2.62-3.66-4.58-6.52-6.47-1.87-1.23-5.16-2.44-10.01-4.43-5.01-2.06-8-4.65-9.34-6.22-1.36-1.6-1.89-3.68-1.55-6.18,.36-2.7,1.72-4.79,4.04-6.22,2.3-1.41,5.45-1.87,9.35-1.35,2.3,.3,4.27,.96,5.91,1.92l2.88-5.1,.06-.48c-2.37-1.33-5.11-2.21-8.23-2.63-5.43-.72-10,.21-13.59,2.78-3.58,2.56-5.71,6.25-6.34,10.95-.35,2.62-.11,5.07,.72,7.28s2.17,4.15,3.98,5.76c1.83,1.63,5.09,3.46,9.68,5.44,5.21,2.25,8.64,3.93,10.19,5,1.57,1.09,2.7,2.39,3.36,3.86s.87,3.14,.62,4.96c-.41,3.1-1.92,5.5-4.49,7.13-1.15,.73-2.47,1.27-3.95,1.59-1.75,.54-3.82,.73-6.23,.4-4.46-.59-8.34-2.65-11.26-5.62-.94-.83-1.58-1.55-2.34-2.52-.1-.13-.2-.25-.3-.38l-3,5.35c.56,.77,1.08,1.26,1.53,1.83,3.21,4.04,7.99,6.51,14.21,7.34,3.99,.53,7.54,.26,10.56-.79,3-1.06,5.54-2.87,7.54-5.38,2-2.52,3.25-5.49,3.69-8.82,.45-3.36,.05-6.39-1.18-9.01" style="fill: #2e2863;"/>
  <path d="M296.56,116.25c-1.23-2.62-3.66-4.58-6.52-6.47-1.87-1.23-5.16-2.44-10.01-4.43-5.01-2.06-8-4.65-9.34-6.22-1.36-1.6-1.89-3.68-1.55-6.18,.36-2.7,1.72-4.79,4.04-6.22,2.3-1.41,5.45-1.87,9.35-1.35,2.3,.3,4.27,.96,5.91,1.92l2.88-5.1,.06-.48c-2.37-1.33-5.11-2.21-8.23-2.63-5.43-.72-10,.21-13.59,2.78-3.58,2.56-5.71,6.25-6.34,10.95-.35,2.62-.11,5.07,.72,7.28s2.17,4.15,3.98,5.76c1.83,1.63,5.09,3.46,9.68,5.44,5.21,2.25,8.64,3.93,10.19,5,1.57,1.09,2.7,2.39,3.36,3.86,.66,1.47,.87,3.14,.62,4.96-.41,3.1-1.92,5.5-4.49,7.13-1.15,.73-2.47,1.27-3.95,1.59-1.75,.54-3.82,.73-6.23,.4-4.46-.59-8.34-2.65-11.26-5.62-.94-.83-1.58-1.55-2.34-2.52-.1-.13-.2-.25-.3-.38l-3,5.35c.56,.77,1.08,1.26,1.53,1.83,3.21,4.04,7.99,6.51,14.21,7.34,3.99,.53,7.54,.26,10.56-.79,3-1.06,5.54-2.87,7.54-5.38,2-2.52,3.25-5.49,3.69-8.82,.45-3.36,.05-6.39-1.18-9.01" style="fill: #2e2863;"/>
  <polygon points="216.19 90.38 249.16 140.01 255.37 140.01 255.37 78.81 248.82 78.81 248.82 127.72 216.2 78.81 209.65 78.81 209.65 140.01 216.2 140.01 216.19 90.38" style="fill: #2e2863;"/>
  <polygon points=".08 140.01 .08 78.81 6.64 78.81 6.64 134.16 35.71 134.16 35.71 140.01 .08 140.01" style="fill: #2e2863;"/>
  <polygon points="92.46 140.02 99.13 140.02 76.7 78.8 71.5 78.8 49.07 140.02 55.75 140.02 62.39 121.3 78.94 121.3 76.88 115.45 64.47 115.45 74.1 88.29 92.46 140.02" style="fill: #2e2863;"/>
</svg>